ffmpeg version 3.4.8-0ubuntu0.2 Copyright (c) 2000-2020 the FFmpeg developers
  built with gcc 7 (Ubuntu 7.5.0-3ubuntu1~18.04)
  configuration: --prefix=/usr --extra-version=0ubuntu0.2 --toolchain=hardened --libdir=/usr/lib/x86_64-linux-gnu --incdir=/usr/include/x86_64-linux-gnu --enable-gpl --disable-stripping --enable-avresample --enable-avisynth --enable-gnutls --enable-ladspa --enable-libass --enable-libbluray --enable-libbs2b --enable-libcaca --enable-libcdio --enable-libflite --enable-libfontconfig --enable-libfreetype --enable-libfribidi --enable-libgme --enable-libgsm --enable-libmp3lame --enable-libmysofa --enable-libopenjpeg --enable-libopenmpt --enable-libopus --enable-libpulse --enable-librubberband --enable-librsvg --enable-libshine --enable-libsnappy --enable-libsoxr --enable-libspeex --enable-libssh --enable-libtheora --enable-libtwolame --enable-libvorbis --enable-libvpx --enable-libwavpack --enable-libwebp --enable-libx265 --enable-libxml2 --enable-libxvid --enable-libzmq --enable-libzvbi --enable-omx --enable-openal --enable-opengl --enable-sdl2 --enable-libdc1394 --enable-libdrm --enable-libiec61883 --enable-chromaprint --enable-frei0r --enable-libopencv --enable-libx264 --enable-shared
  libavutil      55. 78.100 / 55. 78.100
  libavcodec     57.107.100 / 57.107.100
  libavformat    57. 83.100 / 57. 83.100
  libavdevice    57. 10.100 / 57. 10.100
  libavfilter     6.107.100 /  6.107.100
  libavresample   3.  7.  0 /  3.  7.  0
  libswscale      4.  8.100 /  4.  8.100
  libswresample   2.  9.100 /  2.  9.100
  libpostproc    54.  7.100 / 54.  7.100
[rawvideo @ 0x55f282de5a20] Estimating duration from bitrate, this may be inaccurate
Input #0, rawvideo, from '../../SVC-Encoder-20220109T061506Z-001/SVC-Encoder/Dataset/RollerCoaster/ERP_8x8/tile_yuv/Tile_44_480x240.yuv':
  Duration: 00:00:10.00, start: 0.000000, bitrate: 41472 kb/s
    Stream #0:0: Video: rawvideo (I420 / 0x30323449), yuv420p, 480x240, 41472 kb/s, 30 tbr, 30 tbn, 30 tbc
Stream mapping:
  Stream #0:0 -> #0:0 (rawvideo (native) -> h264 (libx264))
Press [q] to stop, [?] for help
[libx264 @ 0x55f282df2c60] using cpu capabilities: MMX2 SSE2Fast LZCNT SSSE3 SSE4.2 AVX
[libx264 @ 0x55f282df2c60] profile High, level 2.1
Output #0, rawvideo, to 'RollerCoaster_Tile_44_480x240_x264_QP_36.h264':
  Metadata:
    encoder         : Lavf57.83.100
    Stream #0:0: Video: h264 (libx264), yuv420p, 480x240, q=-1--1, 30 fps, 30 tbn, 30 tbc
    Metadata:
      encoder         : Lavc57.107.100 libx264
    Side data:
      cpb: bitrate max/min/avg: 0/0/0 buffer size: 0 vbv_delay: -1
frame=  147 fps=0.0 q=42.0 PSNR=Y:nan U:nan V:nan *:nan size=      62kB time=00:00:03.46 bitrate= 145.6kbits/s speed=6.91x    frame=  293 fps=287 q=42.0 PSNR=Y:nan U:nan V:nan *:nan size=     148kB time=00:00:08.33 bitrate= 145.3kbits/s speed=8.17x    frame=  300 fps=258 q=42.0 LPSNR=Y:inf U:inf V:inf *:inf size=     173kB time=00:00:09.93 bitrate= 142.9kbits/s speed=8.53x    
video:173kB audio:0kB subtitle:0kB other streams:0kB global headers:0kB muxing overhead: 0.000000%
[libx264 @ 0x55f282df2c60] frame I:2     Avg QP:35.76  size:  4960  PSNR Mean Y:34.02 U:38.74 V:41.94 Avg:35.27 Global:35.26
[libx264 @ 0x55f282df2c60] frame P:79    Avg QP:37.50  size:  1198  PSNR Mean Y:32.58 U:39.09 V:42.27 Avg:33.99 Global:33.98
[libx264 @ 0x55f282df2c60] frame B:219   Avg QP:41.49  size:   333  PSNR Mean Y:32.19 U:39.32 V:42.41 Avg:33.65 Global:33.64
[libx264 @ 0x55f282df2c60] consecutive B-frames:  1.0%  2.7%  7.0% 89.3%
[libx264 @ 0x55f282df2c60] mb I  I16..4: 11.2% 64.7% 24.1%
[libx264 @ 0x55f282df2c60] mb P  I16..4:  3.2%  4.6%  0.3%  P16..4: 48.3% 11.9%  1.4%  0.0%  0.0%    skip:30.3%
[libx264 @ 0x55f282df2c60] mb B  I16..4:  0.1%  0.1%  0.0%  B16..8: 33.8%  3.8%  0.1%  direct: 0.1%  skip:62.0%  L0:39.2% L1:59.0% BI: 1.8%
[libx264 @ 0x55f282df2c60] 8x8 transform intra:58.5% inter:86.9%
[libx264 @ 0x55f282df2c60] coded y,uvDC,uvAC intra: 36.4% 58.4% 11.0% inter: 4.5% 5.7% 0.0%
[libx264 @ 0x55f282df2c60] i16 v,h,dc,p: 14% 35% 23% 29%
[libx264 @ 0x55f282df2c60] i8 v,h,dc,ddl,ddr,vr,hd,vl,hu:  5% 21% 27%  2%  8%  6% 13%  1% 16%
[libx264 @ 0x55f282df2c60] i4 v,h,dc,ddl,ddr,vr,hd,vl,hu:  9% 21% 22%  1% 17%  9% 10%  1%  9%
[libx264 @ 0x55f282df2c60] i8c dc,h,v,p: 57% 30%  5%  9%
[libx264 @ 0x55f282df2c60] Weighted P-Frames: Y:1.3% UV:0.0%
[libx264 @ 0x55f282df2c60] ref P L0: 61.0% 12.1% 17.2%  9.6%  0.1%
[libx264 @ 0x55f282df2c60] ref B L0: 88.4%  9.3%  2.2%
[libx264 @ 0x55f282df2c60] ref B L1: 94.2%  5.8%
[libx264 @ 0x55f282df2c60] PSNR Mean Y:32.306 U:39.252 V:42.368 Avg:33.750 Global:33.736 kb/s:141.99
